<?xml version="1.0" encoding="utf-8"?>
<!-- Generator: Adobe Illustrator 13.0.0, SVG Export Plug-In . SVG Version: 6.00 Build 14948)  -->
<!DOCTYPE svg PUBLIC "-//W3C//DTD SVG 1.1//EN" "http://www.w3.org/Graphics/SVG/1.1/DTD/svg11.dtd">
<svg version="1.1" id="Layer_1" xmlns="http://www.w3.org/2000/svg" xmlns:xlink="http://www.w3.org/1999/xlink" x="0px" y="0px"
	 width="26.125px" height="41.75px" viewBox="11.75 19.784 26.125 41.75" enable-background="new 11.75 19.784 26.125 41.75"
	 xml:space="preserve">
<path fill="#FBC926" d="M37.396,33.054c0,6.847-12.255,27.602-12.255,27.602S12.6,39.901,12.6,33.054s5.551-12.398,12.398-12.398
	C31.846,20.656,37.396,26.207,37.396,33.054z"/>
<path fill="#FBC926" stroke="#FFFFFF" stroke-width="1.4877" d="M15.179,33.364c0.001-5.479,4.44-9.918,9.919-9.918l0,0
	c5.478,0,9.917,4.439,9.917,9.918l0,0c0,5.478-4.439,9.919-9.917,9.919l0,0C19.62,43.281,15.18,38.841,15.179,33.364L15.179,33.364z
	 M18.822,27.087c-1.607,1.607-2.6,3.823-2.6,6.275l0,0c0,2.453,0.992,4.669,2.6,6.276l0,0c1.608,1.608,3.824,2.601,6.277,2.601l0,0
	c2.452,0,4.669-0.993,6.276-2.601l0,0c1.607-1.607,2.6-3.823,2.6-6.276l0,0c0-2.452-0.992-4.668-2.6-6.275l0,0
	c-1.607-1.606-3.824-2.6-6.276-2.6l0,0C22.645,24.488,20.43,25.481,18.822,27.087L18.822,27.087z"/>
<g>
	<g>
		<circle fill="#FFFFFF" cx="25.099" cy="33.364" r="9.398"/>
		<path fill="#FBC926" d="M15.179,33.364c0.001-5.479,4.44-9.918,9.919-9.918l0,0c5.478,0,9.917,4.439,9.917,9.918l0,0
			c0,5.478-4.439,9.919-9.917,9.919l0,0C19.62,43.281,15.18,38.841,15.179,33.364L15.179,33.364z M18.822,27.087
			c-1.607,1.607-2.6,3.823-2.6,6.275l0,0c0,2.453,0.992,4.669,2.6,6.276l0,0c1.608,1.608,3.824,2.601,6.277,2.601l0,0
			c2.452,0,4.669-0.993,6.276-2.601l0,0c1.607-1.607,2.6-3.823,2.6-6.276l0,0c0-2.452-0.992-4.668-2.6-6.275l0,0
			c-1.607-1.606-3.824-2.6-6.276-2.6l0,0C22.645,24.488,20.43,25.481,18.822,27.087L18.822,27.087z"/>
	</g>
	<g>
		<g>
			<defs>
				<circle id="SVGID_1_" cx="25.099" cy="33.364" r="9.398"/>
			</defs>
			<clipPath id="SVGID_2_">
				<use xlink:href="#SVGID_1_"  overflow="visible"/>
			</clipPath>
			<g clip-path="url(#SVGID_2_)">
				<path fill="#FBC926" d="M36.518,43.017c-0.145-0.002-0.258-0.121-0.256-0.264l0,0c0.004-0.145,0.123-0.26,0.268-0.256l0,0
					c0.143,0.004,0.258,0.123,0.254,0.266l0,0c-0.004,0.143-0.119,0.254-0.26,0.254l0,0C36.521,43.017,36.52,43.017,36.518,43.017
					L36.518,43.017z M36.914,42.761c-0.008-0.143,0.104-0.264,0.248-0.271l0,0l0.012,0.26l-0.012-0.26l0.012,0.26l-0.012-0.26
					c0.143-0.008,0.266,0.105,0.271,0.248l0,0c0.008,0.143-0.104,0.266-0.248,0.271l0,0c-0.004,0-0.008,0.002-0.012,0.002l0,0
					C37.035,43.011,36.92,42.902,36.914,42.761L36.914,42.761z M35.85,42.982L35.85,42.982L35.85,42.982
					c-0.143-0.014-0.248-0.141-0.236-0.283l0,0c0.014-0.145,0.141-0.248,0.283-0.236l0,0c0.143,0.014,0.248,0.139,0.236,0.283l0,0
					c-0.014,0.135-0.127,0.236-0.26,0.236l0,0C35.865,42.982,35.857,42.982,35.85,42.982L35.85,42.982z M37.564,42.728
					c-0.018-0.143,0.084-0.271,0.229-0.289l0,0c0.143-0.016,0.271,0.086,0.289,0.229l0,0c0.016,0.145-0.086,0.273-0.229,0.289l0,0
					c-0.01,0.002-0.021,0.002-0.031,0.002l0,0C37.691,42.959,37.578,42.861,37.564,42.728L37.564,42.728z M35.186,42.898
					c0,0,0,0,0-0.002l0,0c-0.141-0.021-0.238-0.154-0.215-0.297l0,0c0.023-0.143,0.156-0.238,0.299-0.215l0,0l0,0
					c0.141,0.021,0.238,0.154,0.215,0.297l0,0c-0.02,0.129-0.131,0.219-0.256,0.219l0,0C35.215,42.902,35.199,42.9,35.186,42.898
					L35.186,42.898z M38.211,42.648c-0.027-0.141,0.066-0.275,0.207-0.303l0,0c0.143-0.027,0.277,0.066,0.305,0.209l0,0
					c0.025,0.141-0.068,0.277-0.209,0.303l0,0c-0.016,0.004-0.033,0.006-0.047,0.006l0,0C38.344,42.863,38.234,42.773,38.211,42.648
					L38.211,42.648z M34.529,42.767c-0.141-0.031-0.227-0.172-0.193-0.313l0,0c0.031-0.141,0.172-0.227,0.313-0.193l0,0
					c0.141,0.031,0.227,0.172,0.193,0.313l0,0c-0.027,0.121-0.135,0.201-0.252,0.201l0,0C34.57,42.775,34.551,42.773,34.529,42.767
					L34.529,42.767z M38.85,42.525c-0.035-0.139,0.047-0.281,0.186-0.318l0,0c0.141-0.035,0.281,0.049,0.318,0.188l0,0
					c0.037,0.139-0.047,0.281-0.186,0.318l0,0c-0.023,0.006-0.045,0.008-0.066,0.008l0,0C38.984,42.72,38.879,42.642,38.85,42.525
					L38.85,42.525z M33.883,42.594c-0.137-0.041-0.213-0.188-0.172-0.326l0,0c0.043-0.137,0.188-0.213,0.326-0.17l0,0
					c0.137,0.041,0.215,0.188,0.174,0.324l0,0c-0.035,0.113-0.139,0.184-0.25,0.184l0,0C33.936,42.605,33.908,42.601,33.883,42.594
					L33.883,42.594z M39.479,42.357c-0.047-0.135,0.027-0.283,0.164-0.328l0,0v-0.002c0.135-0.045,0.283,0.029,0.33,0.164l0,0
					c0.045,0.137-0.029,0.285-0.164,0.33l0,0l0,0l0,0c-0.027,0.01-0.055,0.014-0.084,0.014l0,0
					C39.617,42.535,39.516,42.467,39.479,42.357L39.479,42.357z M33.25,42.375c-0.133-0.053-0.201-0.203-0.148-0.338l0,0
					c0.053-0.135,0.203-0.201,0.338-0.148l0,0c0.133,0.051,0.199,0.201,0.148,0.336l0,0c-0.041,0.104-0.137,0.168-0.242,0.168l0,0
					C33.313,42.392,33.281,42.386,33.25,42.375L33.25,42.375z M40.094,42.146c-0.055-0.133,0.008-0.285,0.141-0.34l0,0l0.1,0.24
					l-0.1-0.24l0.1,0.24l-0.1-0.24c0.133-0.057,0.285,0.008,0.34,0.141l0,0c0.055,0.133-0.008,0.283-0.141,0.34l0,0
					c-0.031,0.014-0.066,0.02-0.1,0.02l0,0C40.232,42.306,40.135,42.248,40.094,42.146L40.094,42.146z M32.635,42.111L32.635,42.111
					L32.635,42.111c-0.131-0.063-0.188-0.217-0.125-0.348l0,0c0.061-0.131,0.217-0.186,0.346-0.124l0,0l0,0
					c0.131,0.06,0.186,0.216,0.125,0.347l0,0c-0.045,0.094-0.137,0.148-0.234,0.148l0,0C32.707,42.135,32.672,42.127,32.635,42.111
					L32.635,42.111z M40.693,41.892c-0.066-0.129-0.014-0.284,0.115-0.35l0,0h0.002c0.127-0.063,0.283-0.012,0.35,0.117l0,0
					c0.063,0.129,0.012,0.285-0.117,0.35l0,0c-0.039,0.018-0.078,0.027-0.117,0.027l0,0C40.83,42.037,40.738,41.984,40.693,41.892
					L40.693,41.892z M32.039,41.804l0.127-0.228L32.039,41.804l0.127-0.228L32.039,41.804c-0.125-0.07-0.172-0.229-0.102-0.354l0,0
					c0.07-0.126,0.23-0.172,0.355-0.101l0,0c0.125,0.07,0.17,0.229,0.1,0.354l0,0c-0.047,0.086-0.137,0.133-0.227,0.133l0,0
					C32.121,41.838,32.08,41.828,32.039,41.804L32.039,41.804z M41.273,41.598c-0.074-0.124-0.033-0.283,0.092-0.357l0,0l0,0
					c0.123-0.072,0.283-0.031,0.355,0.094l0,0c0.074,0.123,0.033,0.283-0.092,0.356l0,0l0,0l0,0
					c-0.041,0.023-0.086,0.035-0.131,0.035l0,0C41.408,41.726,41.32,41.681,41.273,41.598L41.273,41.598z M31.467,41.459
					c-0.121-0.078-0.156-0.239-0.078-0.36l0,0c0.08-0.121,0.24-0.155,0.361-0.075l0,0l0,0c0.121,0.077,0.156,0.239,0.076,0.36l0,0
					c-0.051,0.076-0.133,0.118-0.219,0.118l0,0C31.559,41.502,31.51,41.488,31.467,41.459L31.467,41.459z M41.83,41.264
					c-0.08-0.119-0.051-0.281,0.068-0.362l0,0l0,0c0.119-0.082,0.279-0.052,0.361,0.067l0,0c0.082,0.118,0.053,0.28-0.066,0.363l0,0
					l-0.148-0.217l0.148,0.217c-0.045,0.029-0.098,0.044-0.148,0.044l0,0C41.963,41.377,41.881,41.338,41.83,41.264L41.83,41.264z
					 M42.193,41.333l-0.148-0.217L42.193,41.333L42.193,41.333z M30.918,41.074c-0.113-0.086-0.137-0.25-0.051-0.364l0,0
					c0.086-0.115,0.25-0.138,0.365-0.051l0,0c0.113,0.086,0.137,0.25,0.051,0.365l0,0c-0.051,0.066-0.131,0.103-0.209,0.103l0,0
					C31.021,41.127,30.965,41.11,30.918,41.074L30.918,41.074z M42.365,40.892c-0.09-0.113-0.07-0.277,0.041-0.367l0,0h0.002
					c0.113-0.09,0.275-0.071,0.365,0.042l0,0c0.088,0.114,0.07,0.278-0.043,0.366l0,0l0,0c-0.047,0.038-0.105,0.057-0.16,0.057l0,0
					C42.492,40.99,42.416,40.956,42.365,40.892L42.365,40.892z M30.398,40.653c-0.109-0.095-0.119-0.259-0.025-0.368l0,0
					c0.094-0.109,0.26-0.121,0.367-0.026l0,0c0.109,0.094,0.121,0.258,0.025,0.368l0,0c-0.051,0.059-0.123,0.09-0.197,0.09l0,0
					C30.51,40.717,30.447,40.695,30.398,40.653L30.398,40.653z M42.873,40.484c-0.098-0.107-0.09-0.271,0.016-0.368l0,0
					c0.107-0.097,0.271-0.09,0.369,0.018l0,0c0.096,0.105,0.088,0.27-0.018,0.367l0,0c-0.049,0.045-0.113,0.068-0.176,0.068l0,0
					C42.994,40.569,42.924,40.539,42.873,40.484L42.873,40.484z M29.908,40.197c-0.1-0.102-0.102-0.267,0-0.368l0,0
					c0.102-0.103,0.268-0.103,0.369,0l0,0c0.102,0.101,0.102,0.266,0,0.368l0,0c-0.051,0.051-0.117,0.075-0.184,0.075l0,0
					C30.027,40.272,29.961,40.246,29.908,40.197L29.908,40.197z M43.35,40.04c-0.104-0.099-0.107-0.264-0.008-0.367l0,0l0.189,0.18
					l-0.189-0.18l0.189,0.18l-0.189-0.18c0.1-0.104,0.266-0.108,0.369-0.009l0,0c0.104,0.099,0.107,0.265,0.008,0.368l0,0
					c-0.051,0.053-0.119,0.08-0.188,0.08l0,0C43.465,40.114,43.4,40.09,43.35,40.04L43.35,40.04z M29.453,39.707
					c-0.096-0.108-0.084-0.273,0.025-0.368l0,0c0.107-0.094,0.273-0.083,0.367,0.026l0,0c0.094,0.108,0.082,0.273-0.025,0.367l0,0
					c-0.049,0.043-0.111,0.063-0.172,0.063l0,0C29.576,39.796,29.504,39.766,29.453,39.707L29.453,39.707z M43.797,39.567
					c-0.111-0.092-0.125-0.256-0.033-0.367l0,0c0.092-0.11,0.256-0.125,0.367-0.033l0,0c0.109,0.093,0.125,0.257,0.033,0.367l0,0
					c-0.053,0.062-0.127,0.093-0.201,0.093l0,0C43.906,39.626,43.846,39.608,43.797,39.567L43.797,39.567z M29.029,39.188
					l0.209-0.156L29.029,39.188l0.209-0.156L29.029,39.188c-0.086-0.114-0.063-0.278,0.053-0.364l0,0
					c0.113-0.087,0.277-0.064,0.363,0.051l0,0c0.088,0.114,0.064,0.278-0.051,0.364l0,0c-0.045,0.035-0.102,0.053-0.156,0.053l0,0
					C29.16,39.291,29.082,39.256,29.029,39.188L29.029,39.188z M44.211,39.063c-0.117-0.084-0.145-0.247-0.061-0.363l0,0
					c0.086-0.116,0.248-0.143,0.363-0.059l0,0c0.117,0.083,0.145,0.246,0.059,0.363l0,0c-0.049,0.07-0.131,0.108-0.211,0.108l0,0
					C44.309,39.113,44.256,39.096,44.211,39.063L44.211,39.063z M28.646,38.642l0.217-0.143L28.646,38.642l0.217-0.143
					L28.646,38.642c-0.08-0.12-0.047-0.281,0.074-0.36l0,0c0.121-0.079,0.283-0.045,0.361,0.075l0,0l0,0
					c0.078,0.12,0.045,0.28-0.076,0.36l0,0c-0.043,0.029-0.094,0.043-0.143,0.043l0,0C28.779,38.76,28.695,38.718,28.646,38.642
					L28.646,38.642z M44.588,38.532c-0.123-0.077-0.16-0.237-0.086-0.359l0,0l0,0c0.078-0.122,0.236-0.16,0.359-0.085l0,0
					c0.123,0.076,0.16,0.236,0.086,0.358l0,0l-0.223-0.136l0.223,0.137c-0.051,0.08-0.135,0.123-0.223,0.123l0,0
					C44.678,38.571,44.629,38.559,44.588,38.532L44.588,38.532z M44.947,38.447l-0.223-0.136L44.947,38.447L44.947,38.447z
					 M28.299,38.071c-0.07-0.126-0.025-0.285,0.102-0.354l0,0c0.125-0.071,0.283-0.027,0.354,0.099l0,0
					c0.07,0.127,0.025,0.285-0.1,0.355l0,0c-0.041,0.022-0.084,0.032-0.127,0.032l0,0C28.436,38.203,28.348,38.156,28.299,38.071
					L28.299,38.071z M44.928,37.975c-0.127-0.066-0.176-0.225-0.109-0.352l0,0l0,0c0.066-0.128,0.225-0.176,0.352-0.109l0,0
					c0.127,0.068,0.176,0.226,0.109,0.353l0,0c-0.047,0.09-0.137,0.139-0.23,0.139l0,0C45.008,38.006,44.967,37.995,44.928,37.975
					L44.928,37.975z M27.994,37.476l0.234-0.111L27.994,37.476l0.234-0.111L27.994,37.476c-0.063-0.131-0.006-0.286,0.123-0.347l0,0
					c0.131-0.062,0.287-0.006,0.348,0.124l0,0c0.061,0.131,0.006,0.285-0.125,0.348l0,0c-0.035,0.016-0.072,0.023-0.111,0.023l0,0
					C28.131,37.624,28.037,37.57,27.994,37.476L27.994,37.476z M45.227,37.397c-0.131-0.058-0.189-0.212-0.133-0.343l0,0
					l0.238,0.105l-0.238-0.105l0.238,0.105l-0.238-0.105c0.059-0.132,0.213-0.191,0.344-0.133l0,0
					c0.131,0.058,0.191,0.212,0.133,0.344l0,0l-0.238-0.105l0.238,0.105l-0.238-0.105l0.238,0.105
					c-0.043,0.098-0.137,0.155-0.238,0.155l0,0C45.297,37.419,45.262,37.412,45.227,37.397L45.227,37.397z M27.729,36.862
					c-0.051-0.134,0.016-0.285,0.148-0.338l0,0c0.135-0.052,0.287,0.015,0.338,0.148l0,0l0,0c0.053,0.135-0.014,0.285-0.146,0.337
					l0,0c-0.031,0.012-0.064,0.018-0.096,0.018l0,0C27.869,37.027,27.77,36.964,27.729,36.862L27.729,36.862z M45.486,36.798
					c-0.135-0.048-0.205-0.196-0.156-0.333l0,0l0,0l0,0l0,0l0.246,0.089l-0.246-0.089l0.246,0.089l-0.246-0.089
					c0.051-0.135,0.199-0.205,0.334-0.156l0,0c0.135,0.05,0.205,0.198,0.156,0.334l0,0c-0.037,0.105-0.139,0.172-0.244,0.172l0,0
					C45.547,36.815,45.516,36.81,45.486,36.798L45.486,36.798z M45.33,36.466L45.33,36.466L45.33,36.466L45.33,36.466L45.33,36.466
					L45.33,36.466z M27.508,36.231L27.508,36.231L27.508,36.231c-0.041-0.139,0.035-0.284,0.174-0.327l0,0
					c0.137-0.042,0.281,0.034,0.324,0.172l0,0l0,0c0.043,0.138-0.033,0.283-0.17,0.326l0,0c-0.025,0.008-0.053,0.012-0.078,0.012
					l0,0C27.646,36.413,27.543,36.341,27.508,36.231L27.508,36.231z M45.703,36.186c-0.139-0.04-0.219-0.184-0.18-0.322l0,0l0,0
					c0.041-0.139,0.184-0.219,0.322-0.18l0,0c0.139,0.039,0.219,0.184,0.18,0.322l0,0l0,0l0,0c-0.033,0.114-0.137,0.189-0.25,0.189
					l0,0C45.752,36.196,45.727,36.193,45.703,36.186L45.703,36.186z M27.334,35.585c-0.033-0.141,0.053-0.28,0.193-0.314l0,0
					c0.141-0.032,0.279,0.054,0.313,0.194l0,0l0,0c0.033,0.141-0.053,0.28-0.193,0.313l0,0c-0.02,0.004-0.041,0.006-0.059,0.006l0,0
					C27.469,35.784,27.361,35.704,27.334,35.585L27.334,35.585z M45.877,35.557c-0.141-0.029-0.23-0.167-0.201-0.308l0,0l0,0
					c0.031-0.142,0.168-0.231,0.309-0.201l0,0c0.141,0.029,0.23,0.168,0.201,0.308l0,0c-0.025,0.123-0.133,0.207-0.254,0.207l0,0
					C45.914,35.563,45.896,35.561,45.877,35.557L45.877,35.557z M27.203,34.929L27.203,34.929L27.203,34.929
					c-0.023-0.143,0.072-0.277,0.215-0.3l0,0c0.143-0.023,0.275,0.072,0.299,0.215l0,0l0,0c0.023,0.143-0.072,0.276-0.215,0.3l0,0
					c-0.014,0.002-0.027,0.003-0.041,0.003l0,0C27.334,35.147,27.225,35.056,27.203,34.929L27.203,34.929z M46.006,34.919
					c-0.143-0.021-0.242-0.151-0.221-0.294l0,0l0,0c0.018-0.143,0.148-0.242,0.293-0.223l0,0c0.143,0.021,0.242,0.152,0.223,0.295
					l0,0l0,0l0,0c-0.02,0.13-0.131,0.224-0.26,0.224l0,0C46.031,34.921,46.02,34.92,46.006,34.919L46.006,34.919z M27.119,34.264
					C27.119,34.264,27.119,34.264,27.119,34.264L27.119,34.264c-0.014-0.142,0.092-0.27,0.234-0.282l0,0
					c0.145-0.014,0.271,0.092,0.283,0.235l0,0l0,0c0.014,0.144-0.092,0.27-0.236,0.283l0,0c-0.008,0-0.016,0.001-0.023,0.001l0,0
					C27.244,34.501,27.131,34.4,27.119,34.264L27.119,34.264z M46.092,34.274c-0.145-0.01-0.254-0.135-0.242-0.277l0,0l0,0
					c0.008-0.144,0.133-0.253,0.277-0.242l0,0c0.145,0.01,0.252,0.134,0.242,0.277l0,0c-0.01,0.138-0.125,0.242-0.26,0.242l0,0
					C46.104,34.274,46.098,34.274,46.092,34.274L46.092,34.274z M27.08,33.597C27.08,33.597,27.08,33.597,27.08,33.597L27.08,33.597
					c-0.004-0.145,0.109-0.263,0.254-0.267l0,0c0.145-0.004,0.264,0.11,0.266,0.255l0,0c0.004,0.144-0.109,0.262-0.254,0.267l0,0
					c-0.002,0-0.004,0-0.006,0l0,0C27.199,33.852,27.082,33.739,27.08,33.597L27.08,33.597z M45.871,33.364
					c0-0.096,0.051-0.181,0.129-0.225l0,0c-0.08-0.042-0.135-0.123-0.141-0.219l0,0c-0.008-0.144,0.104-0.266,0.248-0.272l0,0
					c0.145-0.007,0.266,0.104,0.273,0.247l0,0l0,0l0,0c0.004,0.101-0.049,0.19-0.129,0.238l0,0c0.082,0.044,0.139,0.131,0.139,0.23
					l0,0l0,0l0,0c0,0.145-0.115,0.261-0.26,0.261l0,0C45.986,33.624,45.871,33.507,45.871,33.364L45.871,33.364z M27.336,33.199
					c-0.145-0.006-0.256-0.127-0.25-0.271l0,0l0.262,0.012l-0.262-0.012l0.262,0.012l-0.262-0.012
					c0.006-0.145,0.129-0.256,0.273-0.249l0,0c0.143,0.006,0.254,0.128,0.246,0.271l0,0l0,0c-0.006,0.14-0.121,0.249-0.258,0.249
					l0,0C27.344,33.2,27.34,33.2,27.336,33.199L27.336,33.199z M27.367,32.55c-0.143-0.017-0.244-0.146-0.229-0.288l0,0
					c0,0,0,0,0-0.001l0,0c0.016-0.143,0.145-0.245,0.289-0.229l0,0c0.143,0.016,0.244,0.146,0.229,0.288l0,0l0,0
					c-0.016,0.133-0.129,0.231-0.258,0.231l0,0C27.389,32.552,27.377,32.551,27.367,32.55L27.367,32.55z M45.807,32.289
					c-0.016-0.143,0.088-0.272,0.23-0.289l0,0c0.143-0.017,0.271,0.086,0.289,0.229l0,0c0.016,0.143-0.086,0.272-0.229,0.289l0,0
					c-0.012,0.001-0.021,0.002-0.031,0.002l0,0C45.936,32.52,45.824,32.421,45.807,32.289L45.807,32.289z M27.445,31.904
					c-0.141-0.026-0.234-0.162-0.207-0.303l0,0c0.025-0.143,0.16-0.236,0.303-0.209l0,0c0.141,0.025,0.234,0.161,0.209,0.303l0,0
					c-0.023,0.126-0.133,0.213-0.258,0.213l0,0C27.479,31.907,27.463,31.906,27.445,31.904L27.445,31.904z M45.713,31.663
					c-0.027-0.141,0.066-0.277,0.207-0.304l0,0c0.143-0.026,0.279,0.066,0.305,0.208l0,0c0.027,0.142-0.066,0.277-0.207,0.305l0,0
					c-0.018,0.003-0.033,0.004-0.049,0.004l0,0C45.846,31.876,45.736,31.789,45.713,31.663L45.713,31.663z M27.568,31.263
					c-0.139-0.035-0.223-0.177-0.188-0.316l0,0l0.252,0.064l-0.252-0.064l0.252,0.064l-0.252-0.064
					c0.037-0.14,0.18-0.224,0.318-0.188l0,0c0.139,0.036,0.223,0.178,0.186,0.317l0,0l0,0c-0.029,0.117-0.135,0.196-0.252,0.196l0,0
					C27.611,31.273,27.592,31.27,27.568,31.263L27.568,31.263z M45.574,31.047L45.574,31.047c-0.035-0.14,0.047-0.282,0.186-0.318
					l0,0c0.141-0.036,0.281,0.047,0.318,0.187l0,0l0,0l0,0c0.037,0.139-0.047,0.28-0.186,0.317l0,0
					c-0.023,0.006-0.045,0.009-0.066,0.009l0,0C45.711,31.24,45.605,31.163,45.574,31.047L45.574,31.047z M27.734,30.635
					c-0.135-0.046-0.209-0.192-0.162-0.329l0,0H27.57c0.045-0.137,0.195-0.211,0.33-0.166l0,0c0.137,0.046,0.209,0.193,0.166,0.33
					l0,0l0,0c-0.037,0.109-0.139,0.178-0.248,0.178l0,0C27.791,30.648,27.764,30.643,27.734,30.635L27.734,30.635z M45.393,30.441
					c-0.047-0.137,0.027-0.284,0.164-0.331l0,0c0.137-0.046,0.283,0.027,0.33,0.164l0,0c0.045,0.136-0.027,0.284-0.164,0.33l0,0
					c-0.027,0.01-0.055,0.014-0.082,0.014l0,0C45.531,30.617,45.43,30.549,45.393,30.441L45.393,30.441z M27.947,30.018
					c-0.135-0.055-0.197-0.207-0.143-0.341l0,0c0.055-0.133,0.207-0.196,0.34-0.141l0,0c0.135,0.054,0.197,0.207,0.143,0.34l0,0
					c-0.043,0.101-0.139,0.161-0.242,0.161l0,0C28.012,30.037,27.979,30.031,27.947,30.018L27.947,30.018z M45.17,29.849
					c-0.057-0.132,0.008-0.285,0.141-0.341l0,0c0.133-0.055,0.285,0.008,0.342,0.14l0,0c0.055,0.134-0.01,0.286-0.141,0.342l0,0
					c-0.033,0.013-0.066,0.02-0.102,0.02l0,0C45.309,30.009,45.211,29.949,45.17,29.849L45.17,29.849z M28.199,29.417
					c-0.127-0.064-0.182-0.221-0.117-0.35l0,0l0.232,0.115l-0.232-0.115l0.232,0.115l-0.232-0.115
					c0.064-0.129,0.221-0.181,0.35-0.117l0,0c0.129,0.064,0.182,0.22,0.117,0.35l0,0c-0.045,0.092-0.137,0.145-0.234,0.145l0,0
					C28.277,29.445,28.236,29.436,28.199,29.417L28.199,29.417z M44.906,29.275c-0.064-0.128-0.012-0.285,0.117-0.35l0,0
					c0.127-0.064,0.285-0.012,0.35,0.116l0,0l-0.232,0.116l0.232-0.116l-0.232,0.116l0.232-0.116
					c0.064,0.128,0.012,0.285-0.117,0.35l0,0c-0.037,0.019-0.076,0.027-0.115,0.027l0,0C45.045,29.418,44.953,29.366,44.906,29.275
					L44.906,29.275z M28.494,28.835c-0.125-0.072-0.166-0.232-0.094-0.356l0,0l0.225,0.132L28.4,28.479l0.225,0.132L28.4,28.479
					c0.072-0.124,0.232-0.165,0.357-0.093l0,0c0.125,0.072,0.166,0.232,0.092,0.356l0,0l0,0c-0.049,0.083-0.135,0.129-0.225,0.129
					l0,0C28.58,28.871,28.535,28.86,28.494,28.835L28.494,28.835z M44.604,28.719c-0.072-0.124-0.031-0.283,0.092-0.356l0,0
					c0.125-0.074,0.283-0.032,0.357,0.092l0,0c0.072,0.123,0.031,0.283-0.092,0.356l0,0c-0.043,0.024-0.088,0.036-0.133,0.036l0,0
					C44.738,28.847,44.652,28.801,44.604,28.719L44.604,28.719z M28.828,28.277c-0.119-0.082-0.15-0.244-0.068-0.362l0,0
					l0.215,0.146l-0.215-0.146l0.215,0.146l-0.215-0.146c0.082-0.118,0.244-0.149,0.363-0.068l0,0
					c0.117,0.081,0.148,0.244,0.066,0.362l0,0c-0.051,0.073-0.133,0.113-0.215,0.113l0,0C28.924,28.322,28.873,28.306,28.828,28.277
					L28.828,28.277z M44.264,28.186c-0.082-0.118-0.053-0.28,0.066-0.361l0,0c0.119-0.082,0.281-0.052,0.361,0.066l0,0
					c0.082,0.118,0.053,0.281-0.066,0.362l0,0c-0.045,0.03-0.096,0.046-0.146,0.046l0,0C44.395,28.299,44.314,28.26,44.264,28.186
					L44.264,28.186z M29.199,27.741c-0.113-0.09-0.133-0.253-0.043-0.366l0,0l0,0l0,0c0.09-0.112,0.254-0.132,0.367-0.043l0,0
					c0.111,0.09,0.131,0.253,0.043,0.366l0,0c-0.053,0.064-0.129,0.099-0.205,0.099l0,0C29.305,27.797,29.248,27.779,29.199,27.741
					L29.199,27.741z M43.887,27.678c-0.09-0.112-0.072-0.277,0.041-0.366l0,0c0.113-0.09,0.277-0.07,0.365,0.042l0,0
					c0.09,0.112,0.072,0.276-0.041,0.366l0,0c-0.047,0.037-0.105,0.057-0.162,0.057l0,0C44.014,27.777,43.938,27.742,43.887,27.678
					L43.887,27.678z M29.607,27.233c-0.107-0.097-0.115-0.262-0.018-0.367l0,0l0,0l0,0c0.098-0.107,0.262-0.115,0.369-0.018l0,0
					c0.105,0.097,0.113,0.261,0.016,0.368l0,0l0,0c-0.051,0.056-0.121,0.085-0.191,0.085l0,0
					C29.721,27.301,29.658,27.279,29.607,27.233L29.607,27.233z M43.477,27.197c-0.098-0.105-0.092-0.271,0.016-0.368l0,0
					c0.105-0.097,0.271-0.09,0.367,0.017l0,0c0.098,0.106,0.09,0.271-0.016,0.368l0,0c-0.051,0.046-0.113,0.067-0.176,0.067l0,0
					C43.598,27.281,43.527,27.252,43.477,27.197L43.477,27.197z M30.049,26.754c-0.1-0.104-0.096-0.269,0.008-0.368l0,0
					c0.104-0.099,0.268-0.096,0.369,0.008l0,0c0.1,0.104,0.096,0.27-0.008,0.369l0,0c-0.051,0.049-0.115,0.072-0.182,0.072l0,0
					C30.17,26.834,30.1,26.808,30.049,26.754L30.049,26.754z M43.033,26.744L43.033,26.744c-0.105-0.099-0.109-0.264-0.01-0.368l0,0
					c0.1-0.104,0.264-0.107,0.367-0.009l0,0c0.105,0.099,0.109,0.264,0.01,0.368l0,0c-0.051,0.053-0.119,0.081-0.189,0.081l0,0
					C43.146,26.817,43.082,26.793,43.033,26.744L43.033,26.744z M30.523,26.308c-0.092-0.111-0.078-0.275,0.033-0.367l0,0l0,0l0,0
					c0.109-0.093,0.273-0.077,0.365,0.033l0,0c0.094,0.11,0.078,0.274-0.031,0.366l0,0c-0.051,0.041-0.109,0.061-0.168,0.061l0,0
					C30.648,26.402,30.574,26.369,30.523,26.308L30.523,26.308z M42.559,26.323c-0.109-0.092-0.125-0.256-0.035-0.366l0,0
					c0.092-0.111,0.256-0.127,0.367-0.034l0,0c0.111,0.092,0.127,0.256,0.035,0.367l0,0c-0.053,0.062-0.125,0.094-0.201,0.094l0,0
					C42.666,26.384,42.607,26.364,42.559,26.323L42.559,26.323z M31.025,25.894c-0.084-0.116-0.059-0.279,0.059-0.363l0,0
					c0.117-0.085,0.279-0.059,0.363,0.059l0,0c0.084,0.116,0.059,0.278-0.059,0.363l0,0c-0.047,0.033-0.1,0.05-0.152,0.05l0,0
					C31.156,26.002,31.076,25.965,31.025,25.894L31.025,25.894z M42.057,25.938h0.002c-0.117-0.084-0.145-0.247-0.061-0.364l0,0
					c0.084-0.116,0.246-0.143,0.363-0.06l0,0c0.117,0.085,0.143,0.246,0.061,0.363l0,0c-0.051,0.071-0.131,0.108-0.213,0.108l0,0
					C42.156,25.986,42.104,25.971,42.057,25.938L42.057,25.938z M31.555,25.516c-0.074-0.122-0.037-0.282,0.084-0.358l0,0l0,0l0,0
					c0.123-0.076,0.283-0.039,0.359,0.083l0,0c0.076,0.123,0.039,0.283-0.084,0.359l0,0c-0.043,0.026-0.09,0.039-0.137,0.039l0,0
					C31.689,25.639,31.605,25.596,31.555,25.516L31.555,25.516z M41.531,25.586L41.531,25.586c-0.123-0.076-0.16-0.237-0.086-0.359
					l0,0c0.076-0.123,0.236-0.16,0.359-0.085l0,0l0,0l0,0c0.123,0.076,0.16,0.237,0.086,0.359l0,0
					c-0.051,0.079-0.135,0.124-0.225,0.124l0,0C41.621,25.625,41.572,25.613,41.531,25.586L41.531,25.586z M32.109,25.176
					c-0.066-0.127-0.018-0.284,0.109-0.352l0,0l0,0l0,0c0.127-0.068,0.285-0.02,0.352,0.108l0,0c0.068,0.127,0.02,0.284-0.107,0.352
					l0,0c-0.039,0.021-0.08,0.03-0.123,0.03l0,0C32.248,25.315,32.158,25.265,32.109,25.176L32.109,25.176z M40.98,25.272
					l0.121-0.231L40.98,25.272l0.121-0.231L40.98,25.272c-0.127-0.067-0.176-0.225-0.109-0.353l0,0
					c0.068-0.127,0.225-0.176,0.352-0.109l0,0c0.127,0.067,0.178,0.225,0.109,0.352l0,0c-0.045,0.09-0.137,0.141-0.23,0.141l0,0
					C41.061,25.302,41.02,25.291,40.98,25.272L40.98,25.272z M32.686,24.875c-0.057-0.132,0.002-0.285,0.135-0.343l0,0l0,0l0,0
					c0.131-0.059,0.285,0.001,0.344,0.132l0,0c0.059,0.131-0.002,0.286-0.133,0.344l0,0l0,0c-0.035,0.015-0.07,0.022-0.105,0.022
					l0,0C32.826,25.031,32.73,24.973,32.686,24.875L32.686,24.875z M40.41,24.996l0.105-0.237L40.41,24.996l0.105-0.237
					L40.41,24.996c-0.133-0.058-0.191-0.211-0.133-0.343l0,0c0.057-0.132,0.211-0.191,0.342-0.134l0,0l0,0l0,0
					c0.133,0.058,0.193,0.212,0.135,0.344l0,0c-0.043,0.097-0.139,0.155-0.238,0.155l0,0C40.48,25.019,40.445,25.012,40.41,24.996
					L40.41,24.996z M33.283,24.616c-0.049-0.136,0.021-0.285,0.156-0.334l0,0c0.135-0.049,0.285,0.021,0.334,0.155l0,0
					c0.049,0.136-0.021,0.285-0.156,0.334l0,0l0,0c-0.029,0.012-0.059,0.017-0.09,0.017l0,0
					C33.422,24.788,33.322,24.722,33.283,24.616L33.283,24.616z M39.822,24.762c-0.135-0.049-0.207-0.198-0.158-0.333l0,0
					c0.051-0.136,0.199-0.206,0.334-0.157l0,0l0,0l0,0c0.135,0.048,0.205,0.197,0.156,0.333l0,0
					c-0.037,0.106-0.139,0.173-0.244,0.173l0,0C39.881,24.777,39.852,24.772,39.822,24.762L39.822,24.762z M33.896,24.399
					c-0.039-0.139,0.041-0.282,0.18-0.321l0,0l0,0l0,0c0.137-0.04,0.283,0.04,0.32,0.178l0,0c0.041,0.139-0.039,0.283-0.178,0.322
					l0,0c-0.023,0.007-0.049,0.01-0.072,0.01l0,0C34.035,24.587,33.93,24.513,33.896,24.399L33.896,24.399z M39.219,24.569
					c-0.139-0.038-0.219-0.183-0.18-0.321l0,0c0.039-0.139,0.184-0.219,0.322-0.18l0,0c0.137,0.039,0.219,0.183,0.178,0.321l0,0
					c-0.031,0.114-0.135,0.189-0.248,0.189l0,0C39.268,24.578,39.242,24.575,39.219,24.569L39.219,24.569z M34.525,24.224
					c-0.031-0.141,0.059-0.279,0.201-0.309l0,0c0.139-0.03,0.277,0.06,0.309,0.2l0,0c0.029,0.142-0.061,0.279-0.201,0.31l0,0
					c-0.02,0.004-0.035,0.006-0.055,0.006l0,0C34.658,24.431,34.551,24.346,34.525,24.224L34.525,24.224z M38.604,24.419
					c-0.139-0.03-0.23-0.168-0.201-0.309l0,0c0.029-0.142,0.168-0.231,0.309-0.202l0,0c0.141,0.03,0.232,0.168,0.203,0.308l0,0
					c-0.027,0.123-0.135,0.208-0.256,0.208l0,0C38.641,24.423,38.623,24.422,38.604,24.419L38.604,24.419z M35.162,24.093
					c-0.02-0.143,0.08-0.274,0.223-0.294l0,0l0,0l0,0c0.141-0.02,0.273,0.079,0.293,0.223l0,0c0.021,0.142-0.078,0.273-0.221,0.293
					l0,0l0,0c-0.014,0.002-0.025,0.003-0.037,0.003l0,0C35.293,24.318,35.18,24.224,35.162,24.093L35.162,24.093z M37.98,24.312
					c-0.143-0.02-0.242-0.151-0.223-0.294l0,0c0.02-0.143,0.15-0.242,0.293-0.223l0,0c0.143,0.02,0.244,0.15,0.223,0.293l0,0
					c-0.018,0.131-0.129,0.226-0.258,0.226l0,0C38.004,24.314,37.994,24.313,37.98,24.312L37.98,24.312z M35.809,24.008
					c-0.012-0.144,0.098-0.269,0.24-0.279l0,0c0,0,0,0,0,0.001l0,0c0.145-0.011,0.27,0.098,0.279,0.24l0,0
					c0.01,0.144-0.1,0.269-0.242,0.279l0,0c-0.006,0.001-0.012,0.001-0.018,0.001l0,0C35.932,24.25,35.816,24.146,35.809,24.008
					L35.809,24.008z M37.352,24.247L37.352,24.247c-0.145-0.01-0.252-0.134-0.242-0.277l0,0c0.01-0.144,0.133-0.252,0.277-0.242l0,0
					l0,0l0,0c0.143,0.009,0.252,0.134,0.242,0.277l0,0c-0.01,0.138-0.123,0.243-0.26,0.243l0,0
					C37.363,24.248,37.357,24.248,37.352,24.247L37.352,24.247z M36.459,23.966c0-0.144,0.115-0.26,0.258-0.26l0,0
					c0.145,0,0.262,0.115,0.262,0.259l0,0c0,0.145-0.115,0.262-0.26,0.262l0,0l0,0C36.576,24.227,36.459,24.111,36.459,23.966
					L36.459,23.966z M36.717,23.706L36.717,23.706L36.717,23.706L36.717,23.706L36.717,23.706L36.717,23.706L36.717,23.706z"/>
				<path fill="#FBC926" d="M22.511,33.579c-0.003,0.145-0.122,0.259-0.266,0.256l0,0c-0.143-0.003-0.258-0.122-0.255-0.267l0,0l0,0
					c0.003-0.144,0.122-0.258,0.267-0.254l0,0c0.142,0.003,0.254,0.118,0.254,0.26l0,0C22.511,33.575,22.511,33.578,22.511,33.579
					L22.511,33.579z M22.255,33.183c-0.144,0.007-0.266-0.104-0.272-0.248l0,0c-0.007-0.144,0.104-0.266,0.248-0.271l0,0
					c0.144-0.008,0.267,0.104,0.272,0.247l0,0c0,0.005,0.001,0.009,0.001,0.013l0,0C22.504,33.062,22.395,33.178,22.255,33.183
					L22.255,33.183z M22.474,34.247L22.474,34.247L22.474,34.247c-0.013,0.144-0.139,0.249-0.282,0.235l0,0
					c-0.144-0.012-0.249-0.14-0.236-0.282l0,0l0,0c0.013-0.143,0.139-0.249,0.283-0.236l0,0c0.135,0.013,0.236,0.126,0.236,0.26l0,0
					C22.475,34.232,22.474,34.24,22.474,34.247L22.474,34.247z M22.221,32.533c-0.144,0.017-0.271-0.086-0.288-0.229l0,0
					c-0.017-0.143,0.086-0.271,0.229-0.288l0,0c0.144-0.017,0.272,0.086,0.288,0.229l0,0c0.001,0.011,0.002,0.021,0.002,0.03l0,0
					C22.452,32.406,22.354,32.518,22.221,32.533L22.221,32.533z M22.391,34.91L22.391,34.91L22.391,34.91
					c-0.023,0.143-0.157,0.239-0.3,0.217l0,0c-0.141-0.023-0.238-0.157-0.215-0.299l0,0c0.022-0.143,0.155-0.238,0.299-0.217l0,0
					c0.128,0.021,0.219,0.132,0.219,0.258l0,0C22.394,34.883,22.393,34.897,22.391,34.91L22.391,34.91z M22.142,31.887
					c-0.142,0.026-0.277-0.067-0.304-0.209l0,0c-0.026-0.141,0.066-0.277,0.208-0.304l0,0c0.142-0.026,0.278,0.068,0.304,0.21l0,0
					c0.003,0.015,0.005,0.031,0.005,0.047l0,0C22.355,31.754,22.267,31.864,22.142,31.887L22.142,31.887z M22.261,35.568
					c-0.033,0.14-0.174,0.228-0.313,0.195l0,0c-0.141-0.033-0.228-0.173-0.195-0.313l0,0l0,0c0.032-0.141,0.174-0.228,0.313-0.194
					l0,0c0.12,0.027,0.202,0.135,0.202,0.253l0,0C22.268,35.528,22.266,35.548,22.261,35.568L22.261,35.568z M22.019,31.247
					c-0.141,0.037-0.282-0.047-0.318-0.187l0,0l0,0l0,0l0,0l0.252-0.065l-0.252,0.065l0.252-0.065l-0.252,0.065
					c-0.036-0.139,0.047-0.281,0.187-0.317l0,0c0.14-0.037,0.281,0.048,0.317,0.187l0,0l0,0c0.007,0.021,0.01,0.044,0.01,0.065l0,0
					C22.213,31.112,22.135,31.218,22.019,31.247L22.019,31.247z M22.086,36.214c-0.042,0.137-0.188,0.215-0.326,0.172l0,0
					c-0.138-0.043-0.214-0.188-0.172-0.325l0,0c0.042-0.138,0.188-0.216,0.325-0.173l0,0c0.113,0.034,0.185,0.138,0.185,0.249l0,0
					C22.098,36.161,22.094,36.189,22.086,36.214L22.086,36.214z M21.85,30.619c-0.136,0.045-0.284-0.028-0.33-0.165l0,0l0,0
					c-0.045-0.136,0.028-0.283,0.165-0.33l0,0c0.135-0.045,0.283,0.029,0.329,0.165l0,0c0.01,0.028,0.014,0.056,0.014,0.083l0,0
					C22.028,30.48,21.959,30.582,21.85,30.619L21.85,30.619z M21.867,36.847c-0.052,0.134-0.203,0.2-0.337,0.148l0,0
					c-0.135-0.052-0.201-0.203-0.149-0.336l0,0c0.052-0.135,0.202-0.201,0.337-0.15l0,0c0.103,0.041,0.167,0.14,0.167,0.243l0,0
					C21.884,36.784,21.878,36.816,21.867,36.847L21.867,36.847z M21.639,30.003c-0.134,0.055-0.285-0.008-0.341-0.14l0,0l0.241-0.1
					l-0.241,0.1l0.241-0.1l-0.241,0.1c-0.056-0.134,0.009-0.286,0.141-0.342l0,0c0.133-0.055,0.285,0.009,0.341,0.141l0,0l0,0l0,0
					c0.014,0.033,0.021,0.067,0.021,0.1l0,0C21.8,29.865,21.74,29.962,21.639,30.003L21.639,30.003z M21.701,31.061L21.701,31.061
					L21.701,31.061L21.701,31.061L21.701,31.061L21.701,31.061z M21.604,37.462l-0.236-0.11L21.604,37.462l-0.236-0.11
					L21.604,37.462c-0.062,0.131-0.218,0.186-0.347,0.125l0,0c-0.131-0.062-0.187-0.216-0.125-0.346l0,0
					c0.061-0.131,0.216-0.187,0.347-0.125l0,0c0.094,0.044,0.15,0.138,0.15,0.236l0,0C21.629,37.389,21.62,37.427,21.604,37.462
					L21.604,37.462z M21.385,29.405c-0.129,0.064-0.284,0.012-0.35-0.116l0,0c-0.063-0.129-0.012-0.286,0.117-0.35l0,0
					c0.128-0.064,0.284-0.012,0.35,0.116l0,0c0.019,0.037,0.027,0.077,0.027,0.116l0,0C21.53,29.267,21.477,29.359,21.385,29.405
					L21.385,29.405z M21.297,38.058c-0.069,0.126-0.229,0.172-0.354,0.101l0,0c-0.126-0.069-0.171-0.229-0.101-0.354l0,0
					c0.07-0.126,0.229-0.171,0.354-0.102l0,0c0.086,0.048,0.135,0.137,0.135,0.229l0,0C21.332,37.974,21.32,38.018,21.297,38.058
					L21.297,38.058z M21.091,28.823c-0.124,0.074-0.284,0.033-0.357-0.092l0,0c-0.072-0.124-0.031-0.283,0.093-0.356l0,0
					c0.124-0.073,0.284-0.032,0.357,0.092l0,0c0.023,0.042,0.035,0.088,0.035,0.132l0,0C21.219,28.689,21.173,28.776,21.091,28.823
					L21.091,28.823z M20.952,38.631l-0.218-0.142L20.952,38.631l-0.218-0.142L20.952,38.631c-0.078,0.12-0.239,0.155-0.36,0.076l0,0
					c-0.121-0.078-0.155-0.24-0.076-0.361l0,0c0.079-0.12,0.239-0.154,0.361-0.075l0,0c0.076,0.051,0.117,0.134,0.117,0.218l0,0
					C20.994,38.538,20.981,38.587,20.952,38.631L20.952,38.631z M20.757,28.266c-0.119,0.081-0.281,0.052-0.362-0.067l0,0l0,0
					c-0.082-0.118-0.052-0.28,0.068-0.361l0,0c0.116-0.082,0.279-0.052,0.361,0.067l0,0c0.031,0.045,0.045,0.095,0.045,0.146l0,0
					C20.869,28.134,20.831,28.216,20.757,28.266L20.757,28.266z M20.567,39.179c-0.086,0.114-0.25,0.138-0.364,0.052l0,0
					c-0.114-0.087-0.138-0.251-0.051-0.366l0,0v0.001c0.086-0.114,0.25-0.137,0.364-0.051l0,0c0.067,0.051,0.104,0.129,0.104,0.208
					l0,0C20.62,39.077,20.603,39.132,20.567,39.179L20.567,39.179z M20.385,27.732c-0.113,0.09-0.277,0.071-0.366-0.042l0,0l0,0
					c-0.09-0.113-0.07-0.276,0.042-0.365l0,0c0.112-0.09,0.277-0.071,0.365,0.042l0,0c0.038,0.048,0.057,0.104,0.057,0.161l0,0
					C20.483,27.604,20.45,27.681,20.385,27.732L20.385,27.732z M20.146,39.699l-0.196-0.172L20.146,39.699l-0.196-0.172
					L20.146,39.699c-0.095,0.108-0.26,0.119-0.367,0.025l0,0c-0.109-0.095-0.121-0.26-0.026-0.368l0,0v0.001
					c0.094-0.108,0.258-0.12,0.367-0.026l0,0c0.06,0.052,0.09,0.124,0.09,0.196l0,0C20.209,39.588,20.188,39.649,20.146,39.699
					L20.146,39.699z M19.977,27.225c-0.107,0.098-0.271,0.09-0.368-0.017l0,0l0.192-0.176l-0.192,0.176l0.192-0.176l-0.192,0.176
					c-0.097-0.107-0.09-0.271,0.017-0.368l0,0c0.106-0.097,0.271-0.09,0.368,0.017l0,0c0.045,0.051,0.068,0.113,0.068,0.176l0,0
					C20.062,27.103,20.033,27.172,19.977,27.225L19.977,27.225z M19.69,40.188c-0.103,0.102-0.267,0.102-0.368,0l0,0
					c-0.103-0.101-0.103-0.267-0.001-0.367l0,0c0.102-0.103,0.267-0.103,0.369-0.001l0,0c0.051,0.051,0.075,0.117,0.075,0.185l0,0
					C19.765,40.071,19.74,40.137,19.69,40.188L19.69,40.188z M19.534,26.746c-0.099,0.105-0.264,0.108-0.368,0.009l0,0h0.001
					c-0.104-0.1-0.108-0.264-0.01-0.368l0,0c0.1-0.104,0.266-0.108,0.369-0.009l0,0c0,0,0,0,0,0.001l0,0
					c0.053,0.051,0.08,0.119,0.08,0.188l0,0C19.607,26.631,19.583,26.696,19.534,26.746L19.534,26.746z M19.201,40.645
					L19.201,40.645L19.201,40.645c-0.108,0.095-0.273,0.083-0.368-0.024l0,0c-0.094-0.11-0.083-0.274,0.026-0.369l0,0l0,0
					c0.108-0.095,0.273-0.084,0.367,0.025l0,0c0.043,0.05,0.063,0.11,0.063,0.172l0,0C19.29,40.521,19.259,40.593,19.201,40.645
					L19.201,40.645z M19.06,26.3c-0.092,0.111-0.256,0.126-0.367,0.033l0,0l0,0c-0.11-0.092-0.125-0.256-0.033-0.366l0,0
					c0.092-0.11,0.257-0.126,0.367-0.034l0,0c0.062,0.052,0.094,0.127,0.094,0.201l0,0C19.121,26.193,19.101,26.252,19.06,26.3
					L19.06,26.3z M18.682,41.067c-0.115,0.087-0.279,0.064-0.365-0.051l0,0c-0.087-0.114-0.064-0.278,0.051-0.364l0,0v-0.001
					c0.114-0.086,0.278-0.064,0.364,0.051l0,0c0.037,0.047,0.053,0.103,0.053,0.157l0,0C18.785,40.938,18.75,41.015,18.682,41.067
					L18.682,41.067z M18.556,25.887c-0.084,0.117-0.247,0.144-0.363,0.06l0,0c-0.116-0.085-0.143-0.248-0.059-0.364l0,0
					c0.083-0.116,0.246-0.143,0.363-0.059l0,0c0.07,0.052,0.108,0.131,0.108,0.212l0,0C18.606,25.787,18.589,25.841,18.556,25.887
					L18.556,25.887z M18.135,41.453c-0.12,0.078-0.282,0.045-0.36-0.075l0,0c-0.079-0.121-0.045-0.282,0.075-0.361l0,0l0,0
					c0.12-0.079,0.28-0.045,0.36,0.075l0,0c0.029,0.044,0.043,0.094,0.043,0.143l0,0C18.253,41.319,18.211,41.402,18.135,41.453
					L18.135,41.453z M18.026,25.51c-0.076,0.122-0.237,0.16-0.359,0.083l0,0l0,0l0,0l0,0l0.137-0.221l-0.137,0.221l0.137-0.221
					l-0.137,0.221c-0.122-0.075-0.16-0.235-0.085-0.358l0,0c0.076-0.122,0.238-0.159,0.359-0.084l0,0l0,0l0,0
					c0.08,0.05,0.123,0.135,0.123,0.222l0,0C18.064,25.42,18.052,25.467,18.026,25.51L18.026,25.51z M17.563,41.799
					c-0.125,0.07-0.284,0.025-0.355-0.1l0,0c-0.069-0.126-0.025-0.285,0.102-0.355l0,0c0.126-0.07,0.284-0.025,0.354,0.101l0,0
					c0.021,0.04,0.032,0.083,0.032,0.127l0,0C17.697,41.662,17.649,41.75,17.563,41.799L17.563,41.799z M17.667,25.593
					L17.667,25.593L17.667,25.593L17.667,25.593L17.667,25.593L17.667,25.593z M17.468,25.169c-0.066,0.128-0.225,0.177-0.352,0.109
					l0,0l0,0c-0.127-0.067-0.176-0.225-0.109-0.352l0,0c0.068-0.128,0.226-0.176,0.353-0.109l0,0
					c0.09,0.047,0.139,0.137,0.139,0.231l0,0C17.499,25.09,17.489,25.131,17.468,25.169L17.468,25.169z M16.969,42.103
					c-0.13,0.063-0.285,0.006-0.347-0.123l0,0c-0.062-0.131-0.005-0.287,0.124-0.348l0,0c0.131-0.061,0.285-0.005,0.348,0.125l0,0
					c0.016,0.035,0.023,0.074,0.023,0.111l0,0C17.118,41.967,17.064,42.06,16.969,42.103L16.969,42.103z M16.89,24.869
					c-0.058,0.132-0.212,0.191-0.343,0.133l0,0l0,0l0,0l0,0l0.105-0.238l-0.105,0.238l0.105-0.238l-0.105,0.238
					c-0.132-0.058-0.191-0.212-0.133-0.343l0,0c0.058-0.132,0.212-0.192,0.343-0.134l0,0c0.099,0.043,0.155,0.139,0.155,0.239l0,0
					C16.913,24.8,16.906,24.835,16.89,24.869L16.89,24.869z M16.547,25.002L16.547,25.002L16.547,25.002L16.547,25.002
					L16.547,25.002L16.547,25.002z M16.355,42.369l-0.094-0.244L16.355,42.369l-0.094-0.244L16.355,42.369
					c-0.134,0.051-0.284-0.016-0.337-0.148l0,0c-0.052-0.135,0.014-0.285,0.148-0.338l0,0l0,0c0.134-0.053,0.285,0.014,0.337,0.148
					l0,0c0.012,0.031,0.018,0.063,0.018,0.094l0,0C16.521,42.228,16.458,42.328,16.355,42.369L16.355,42.369z M16.292,24.61
					c-0.049,0.136-0.198,0.206-0.333,0.157l0,0l0.089-0.245l-0.089,0.245l0.089-0.245l-0.089,0.245
					c-0.136-0.048-0.205-0.198-0.157-0.333l0,0c0.05-0.136,0.198-0.206,0.334-0.157l0,0c0,0,0,0,0.001,0l0,0
					c0.105,0.038,0.172,0.139,0.172,0.245l0,0C16.308,24.551,16.303,24.581,16.292,24.61L16.292,24.61z M15.724,42.588
					L15.724,42.588L15.724,42.588c-0.139,0.045-0.284-0.033-0.327-0.17l0,0c-0.042-0.137,0.034-0.285,0.172-0.326l0,0l0,0
					c0.138-0.043,0.283,0.033,0.326,0.172l0,0c0.008,0.025,0.012,0.051,0.012,0.076l0,0C15.907,42.451,15.835,42.554,15.724,42.588
					L15.724,42.588z M15.079,42.763c-0.141,0.035-0.28-0.053-0.313-0.193l0,0c-0.033-0.141,0.053-0.279,0.193-0.313l0,0
					c0.141-0.033,0.28,0.053,0.313,0.193l0,0c0.005,0.02,0.008,0.041,0.008,0.061l0,0C15.28,42.629,15.198,42.736,15.079,42.763
					L15.079,42.763z M14.422,42.894c-0.143,0.023-0.276-0.072-0.3-0.215l0,0c-0.023-0.143,0.073-0.275,0.215-0.299l0,0
					c0.143-0.023,0.276,0.072,0.3,0.215l0,0c0.002,0.014,0.003,0.029,0.003,0.043l0,0C14.64,42.763,14.549,42.875,14.422,42.894
					L14.422,42.894z M13.759,42.98L13.759,42.98L13.759,42.98c-0.144,0.012-0.271-0.094-0.284-0.236l0,0
					c-0.013-0.143,0.093-0.27,0.235-0.283l0,0l0,0c0.144-0.012,0.271,0.094,0.284,0.236l0,0c0.001,0.008,0.001,0.016,0.001,0.023
					l0,0C13.995,42.853,13.893,42.967,13.759,42.98L13.759,42.98z M13.767,24.007c-0.009,0.142-0.134,0.251-0.277,0.242l0,0l0,0
					c-0.144-0.012-0.252-0.136-0.243-0.279l0,0c0.011-0.143,0.136-0.252,0.278-0.241l0,0l0,0l0,0
					c0.138,0.01,0.243,0.124,0.243,0.259l0,0C13.768,23.994,13.767,24,13.767,24.007L13.767,24.007z M13.091,43.019
					c-0.145,0.002-0.264-0.111-0.268-0.256l0,0c-0.003-0.143,0.111-0.262,0.255-0.266l0,0c0.144-0.004,0.263,0.109,0.267,0.254l0,0
					c0,0.002,0,0.004,0,0.006l0,0C13.345,42.9,13.232,43.015,13.091,43.019L13.091,43.019z M12.857,24.227
					c-0.096,0-0.18-0.052-0.225-0.129l0,0c-0.042,0.079-0.123,0.135-0.219,0.139l0,0l0,0c-0.144,0.008-0.266-0.104-0.272-0.247l0,0
					c-0.007-0.144,0.104-0.266,0.247-0.272l0,0l0,0l0,0c0.101-0.005,0.19,0.047,0.238,0.129l0,0c0.043-0.084,0.13-0.14,0.231-0.14
					l0,0c0,0,0,0,0-0.001l0,0c0.144,0,0.26,0.117,0.26,0.26l0,0C13.118,24.111,13,24.227,12.857,24.227L12.857,24.227z
					 M12.694,42.763c-0.007,0.143-0.128,0.254-0.272,0.248l0,0c0,0,0,0,0.001,0l0,0c-0.144-0.006-0.255-0.129-0.249-0.271l0,0
					c0.007-0.145,0.129-0.256,0.272-0.25l0,0l0,0c0.139,0.008,0.248,0.123,0.248,0.26l0,0C12.694,42.756,12.694,42.76,12.694,42.763
					L12.694,42.763z M12.044,42.73c-0.018,0.143-0.146,0.246-0.288,0.229l0,0c-0.144-0.016-0.246-0.145-0.229-0.287l0,0
					c0.015-0.143,0.145-0.246,0.287-0.23l0,0h0.001c0.133,0.016,0.23,0.129,0.23,0.26l0,0C12.045,42.709,12.045,42.72,12.044,42.73
					L12.044,42.73z M11.783,24.289c-0.144,0.017-0.272-0.086-0.289-0.229l0,0c-0.017-0.144,0.086-0.272,0.229-0.289l0,0
					c0.143-0.017,0.272,0.086,0.289,0.229l0,0c0.001,0.01,0.002,0.021,0.002,0.03l0,0C12.013,24.16,11.916,24.274,11.783,24.289
					L11.783,24.289z M11.397,42.652c-0.025,0.141-0.161,0.234-0.303,0.209l0,0c-0.142-0.027-0.235-0.162-0.209-0.303l0,0
					c0.026-0.143,0.161-0.236,0.304-0.211l0,0c0.125,0.023,0.213,0.135,0.213,0.258l0,0C11.402,42.621,11.401,42.636,11.397,42.652
					L11.397,42.652z M11.157,24.384L11.157,24.384c-0.142,0.027-0.276-0.066-0.304-0.207l0,0c-0.026-0.142,0.066-0.277,0.207-0.305
					l0,0c0,0,0,0,0.001,0l0,0c0.142-0.026,0.277,0.066,0.304,0.208l0,0c0.003,0.017,0.005,0.032,0.005,0.049l0,0
					C11.37,24.252,11.283,24.361,11.157,24.384L11.157,24.384z M10.758,42.529c-0.037,0.139-0.178,0.223-0.318,0.188l0,0
					c-0.139-0.035-0.223-0.178-0.187-0.316l0,0c0.036-0.141,0.178-0.225,0.316-0.188l0,0c0.118,0.029,0.196,0.135,0.196,0.252l0,0
					C10.765,42.486,10.763,42.508,10.758,42.529L10.758,42.529z M10.54,24.523c-0.139,0.037-0.281-0.046-0.318-0.186l0,0
					c-0.036-0.139,0.048-0.281,0.187-0.317l0,0c0.139-0.037,0.281,0.046,0.318,0.186l0,0c0.006,0.022,0.009,0.045,0.009,0.065l0,0
					C10.735,24.386,10.657,24.493,10.54,24.523L10.54,24.523z M10.128,42.363c-0.046,0.137-0.193,0.211-0.33,0.164l0,0l0.083-0.246
					l-0.083,0.246l0.083-0.246l-0.083,0.246c-0.136-0.045-0.21-0.193-0.165-0.33l0,0c0.047-0.137,0.194-0.209,0.33-0.164l0,0
					c0.109,0.035,0.178,0.137,0.178,0.248l0,0C10.142,42.306,10.137,42.336,10.128,42.363L10.128,42.363z M9.934,24.704
					c-0.137,0.046-0.284-0.027-0.33-0.164l0,0c-0.047-0.136,0.027-0.283,0.163-0.33l0,0l0,0l0,0
					c0.137-0.046,0.284,0.027,0.331,0.164l0,0c0.009,0.027,0.013,0.056,0.013,0.083l0,0C10.111,24.566,10.042,24.668,9.934,24.704
					L9.934,24.704z M9.511,42.152c-0.055,0.133-0.207,0.195-0.341,0.141l0,0l0,0l0,0c-0.133-0.055-0.196-0.207-0.141-0.34l0,0
					c0.054-0.135,0.207-0.197,0.34-0.143l0,0l0,0c0.101,0.043,0.161,0.139,0.161,0.242l0,0C9.531,42.086,9.525,42.119,9.511,42.152
					L9.511,42.152z M9.342,24.927c-0.133,0.055-0.285-0.008-0.341-0.14l0,0c-0.056-0.133,0.007-0.286,0.141-0.342l0,0
					c0.133-0.055,0.285,0.008,0.341,0.141l0,0c0.013,0.032,0.021,0.066,0.021,0.1l0,0C9.503,24.788,9.443,24.885,9.342,24.927
					L9.342,24.927z M8.911,41.898c-0.064,0.129-0.221,0.182-0.35,0.117l0,0l0.116-0.234l-0.116,0.234l0.116-0.234l-0.116,0.234
					c-0.129-0.064-0.181-0.221-0.116-0.35l0,0c0.063-0.128,0.22-0.181,0.349-0.117l0,0c0.092,0.046,0.145,0.139,0.145,0.234l0,0
					C8.938,41.822,8.929,41.861,8.911,41.898L8.911,41.898z M8.768,25.191L8.768,25.191c-0.13,0.064-0.285,0.013-0.35-0.115l0,0
					c-0.064-0.129-0.013-0.286,0.115-0.351l0,0c0.129-0.064,0.285-0.013,0.35,0.116l0,0c0.02,0.037,0.028,0.076,0.028,0.117l0,0
					C8.912,25.053,8.859,25.145,8.768,25.191L8.768,25.191z M8.329,41.604c-0.072,0.124-0.232,0.165-0.356,0.093l0,0l0.132-0.225
					l-0.132,0.225l0.132-0.225l-0.132,0.225c-0.124-0.073-0.165-0.232-0.093-0.357l0,0c0.072-0.123,0.232-0.165,0.356-0.093l0,0
					h0.001c0.082,0.049,0.128,0.136,0.128,0.225l0,0C8.365,41.517,8.354,41.562,8.329,41.604L8.329,41.604z M8.212,25.493
					c-0.124,0.073-0.283,0.032-0.356-0.091l0,0c-0.073-0.124-0.032-0.284,0.092-0.358l0,0c0.124-0.072,0.283-0.031,0.356,0.092l0,0
					c0.025,0.042,0.036,0.088,0.036,0.133l0,0C8.34,25.359,8.295,25.445,8.212,25.493L8.212,25.493z M7.769,41.271
					c-0.081,0.118-0.243,0.148-0.361,0.066l0,0c-0.119-0.08-0.149-0.242-0.067-0.361l0,0c0.081-0.118,0.242-0.149,0.361-0.068l0,0
					v0.001c0.074,0.05,0.114,0.132,0.114,0.215l0,0C7.816,41.174,7.8,41.224,7.769,41.271L7.769,41.271z M7.68,25.834
					c-0.118,0.081-0.281,0.052-0.362-0.067l0,0c-0.081-0.118-0.052-0.28,0.066-0.362l0,0c0,0,0,0,0,0.001l0,0
					c0.119-0.082,0.28-0.053,0.362,0.066l0,0c0.031,0.045,0.047,0.096,0.047,0.147l0,0C7.792,25.701,7.753,25.784,7.68,25.834
					L7.68,25.834z M7.234,40.898c-0.089,0.113-0.252,0.132-0.365,0.043l0,0l0.161-0.204l-0.161,0.204l0.161-0.204l-0.161,0.204
					c-0.113-0.089-0.132-0.254-0.043-0.367l0,0c0.09-0.112,0.253-0.131,0.366-0.042l0,0c0.064,0.051,0.099,0.127,0.099,0.205l0,0
					C7.291,40.794,7.272,40.85,7.234,40.898L7.234,40.898z M7.171,26.211c-0.112,0.089-0.277,0.07-0.366-0.042l0,0
					c-0.09-0.112-0.07-0.276,0.042-0.366l0,0c0.112-0.089,0.276-0.07,0.365,0.042l0,0c0.038,0.048,0.058,0.104,0.058,0.162l0,0
					C7.27,26.083,7.236,26.158,7.171,26.211L7.171,26.211z M6.727,40.49c-0.098,0.106-0.262,0.113-0.368,0.018l0,0
					c-0.106-0.098-0.114-0.262-0.018-0.368l0,0c0.097-0.106,0.262-0.114,0.368-0.018l0,0c0.057,0.051,0.086,0.121,0.086,0.192l0,0
					C6.795,40.377,6.772,40.441,6.727,40.49L6.727,40.49z M6.69,26.622c-0.105,0.097-0.271,0.09-0.367-0.017l0,0
					c-0.098-0.106-0.091-0.271,0.016-0.368l0,0c0.106-0.097,0.271-0.09,0.368,0.017l0,0c0.046,0.05,0.068,0.113,0.068,0.176l0,0
					C6.775,26.501,6.747,26.57,6.69,26.622L6.69,26.622z M6.248,40.048c-0.104,0.1-0.269,0.097-0.367-0.008l0,0l0.188-0.181
					L5.88,40.04l0.188-0.181L5.88,40.04c-0.1-0.104-0.097-0.269,0.008-0.368l0,0c0.104-0.1,0.269-0.096,0.368,0.009l0,0
					c0.049,0.051,0.072,0.115,0.072,0.179l0,0C6.329,39.929,6.301,39.997,6.248,40.048L6.248,40.048z M6.238,27.066
					c-0.099,0.104-0.263,0.108-0.368,0.009l0,0c-0.104-0.099-0.107-0.265-0.01-0.368l0,0c0,0,0,0,0.001,0l0,0
					c0.099-0.104,0.264-0.108,0.368-0.009l0,0c0.053,0.051,0.081,0.119,0.081,0.188l0,0C6.31,26.95,6.286,27.015,6.238,27.066
					L6.238,27.066z M5.801,39.575c-0.11,0.092-0.275,0.077-0.366-0.033l0,0l0,0l0,0c-0.093-0.111-0.078-0.274,0.033-0.367l0,0
					c0.109-0.092,0.273-0.077,0.366,0.033l0,0c0.041,0.049,0.061,0.108,0.061,0.167l0,0C5.895,39.449,5.863,39.523,5.801,39.575
					L5.801,39.575z M5.818,27.538c-0.092,0.111-0.256,0.126-0.367,0.034l0,0c-0.11-0.092-0.126-0.256-0.034-0.366l0,0l0,0l0,0
					c0.093-0.11,0.256-0.126,0.367-0.035l0,0c0.062,0.052,0.094,0.127,0.094,0.201l0,0C5.877,27.431,5.858,27.49,5.818,27.538
					L5.818,27.538z M5.388,39.072c-0.117,0.084-0.279,0.059-0.363-0.059l0,0l0.211-0.152l-0.211,0.152l0.211-0.152l-0.211,0.152
					c-0.085-0.115-0.059-0.278,0.058-0.363l0,0c0.117-0.084,0.279-0.058,0.364,0.06l0,0v-0.001c0.032,0.047,0.049,0.1,0.049,0.152
					l0,0C5.496,38.942,5.458,39.022,5.388,39.072L5.388,39.072z M5.431,28.039L5.431,28.039L5.431,28.039L5.431,28.039l-0.212-0.152
					L5.431,28.039l-0.212-0.152L5.431,28.039c-0.084,0.117-0.247,0.144-0.364,0.061l0,0c-0.116-0.085-0.143-0.247-0.059-0.364l0,0
					c0.084-0.116,0.246-0.144,0.363-0.06l0,0c0.07,0.051,0.108,0.131,0.108,0.212l0,0C5.479,27.941,5.464,27.994,5.431,28.039
					L5.431,28.039z M5.431,28.039L5.431,28.039L5.431,28.039L5.431,28.039z M5.431,28.039L5.431,28.039L5.431,28.039L5.431,28.039z
					 M5.009,38.542c-0.122,0.076-0.282,0.038-0.359-0.084l0,0l0.221-0.137L4.65,38.458l0.221-0.137L4.65,38.458
					c-0.075-0.122-0.038-0.282,0.084-0.359l0,0c0.123-0.074,0.284-0.038,0.36,0.084l0,0c0.026,0.043,0.039,0.091,0.039,0.138l0,0
					C5.133,38.407,5.089,38.492,5.009,38.542L5.009,38.542z M5.08,28.567L5.08,28.567c-0.075,0.122-0.236,0.16-0.359,0.084l0,0
					c-0.123-0.075-0.161-0.236-0.085-0.357l0,0c0,0,0,0,0-0.001l0,0c0.075-0.122,0.237-0.16,0.359-0.084l0,0
					c0.08,0.049,0.124,0.134,0.124,0.222l0,0C5.119,28.477,5.105,28.524,5.08,28.567L5.08,28.567z M4.669,37.987
					c-0.127,0.067-0.284,0.02-0.352-0.108l0,0l0,0l0,0c-0.067-0.127-0.019-0.284,0.108-0.353l0,0
					c0.127-0.067,0.284-0.019,0.352,0.108l0,0c0.021,0.039,0.03,0.081,0.03,0.122l0,0C4.808,37.85,4.758,37.941,4.669,37.987
					L4.669,37.987z M4.765,29.116l-0.23-0.121L4.765,29.116l-0.23-0.121L4.765,29.116L4.765,29.116
					c-0.066,0.128-0.224,0.176-0.352,0.109l0,0c-0.127-0.067-0.177-0.225-0.11-0.353l0,0c0.067-0.126,0.225-0.176,0.353-0.108l0,0
					c0.089,0.046,0.14,0.137,0.14,0.23l0,0C4.795,29.036,4.784,29.078,4.765,29.116L4.765,29.116z M4.369,37.409
					c-0.132,0.059-0.286-0.001-0.344-0.133l0,0c-0.058-0.132,0.001-0.284,0.133-0.343l0,0c0.132-0.059,0.285,0.001,0.343,0.133l0,0
					h0.001c0.016,0.033,0.022,0.07,0.022,0.104l0,0C4.523,37.271,4.466,37.366,4.369,37.409L4.369,37.409z M4.489,29.688
					l-0.237-0.105L4.489,29.688l-0.237-0.105L4.489,29.688L4.489,29.688c-0.058,0.132-0.212,0.19-0.343,0.133l0,0
					c-0.132-0.058-0.192-0.212-0.134-0.343l0,0c0.058-0.132,0.212-0.191,0.344-0.134l0,0c0.097,0.044,0.155,0.139,0.155,0.238l0,0
					C4.512,29.617,4.504,29.653,4.489,29.688L4.489,29.688z M4.109,36.814c-0.135,0.049-0.284-0.021-0.333-0.156l0,0
					c-0.05-0.135,0.021-0.284,0.155-0.334l0,0c0.135-0.049,0.284,0.021,0.334,0.156l0,0c0.01,0.029,0.016,0.06,0.016,0.089l0,0
					C4.281,36.675,4.215,36.776,4.109,36.814L4.109,36.814z M4.255,30.276c-0.049,0.135-0.198,0.206-0.334,0.157l0,0
					c-0.135-0.049-0.205-0.198-0.156-0.334l0,0c0,0,0,0,0,0.001l0,0c0.049-0.136,0.197-0.207,0.333-0.157l0,0
					c0.106,0.038,0.173,0.138,0.173,0.244l0,0C4.271,30.217,4.266,30.246,4.255,30.276L4.255,30.276z M3.892,36.199
					c-0.139,0.04-0.282-0.04-0.322-0.178l0,0l0,0l0,0c-0.039-0.139,0.041-0.283,0.179-0.322l0,0c0.139-0.04,0.282,0.04,0.322,0.18
					l0,0c0.007,0.023,0.01,0.048,0.01,0.071l0,0C4.08,36.064,4.006,36.167,3.892,36.199L3.892,36.199z M4.062,30.878
					c-0.038,0.139-0.183,0.219-0.321,0.18l0,0c-0.138-0.039-0.218-0.182-0.18-0.321l0,0c0.04-0.139,0.184-0.219,0.321-0.18l0,0
					c0.115,0.032,0.19,0.137,0.19,0.251l0,0C4.071,30.83,4.068,30.855,4.062,30.878L4.062,30.878z M3.718,35.573
					c-0.141,0.029-0.279-0.061-0.31-0.202l0,0c-0.03-0.14,0.061-0.277,0.201-0.308l0,0c0.141-0.03,0.279,0.061,0.309,0.2l0,0
					c0.004,0.019,0.006,0.037,0.006,0.055l0,0C3.924,35.439,3.84,35.547,3.718,35.573L3.718,35.573z M3.912,31.492L3.912,31.492
					c-0.03,0.141-0.168,0.231-0.309,0.202l0,0c-0.141-0.03-0.231-0.167-0.202-0.308l0,0l0,0l0,0c0.03-0.142,0.167-0.231,0.308-0.202
					l0,0c0.123,0.025,0.208,0.134,0.208,0.255l0,0C3.917,31.457,3.916,31.475,3.912,31.492L3.912,31.492z M3.586,34.935
					c-0.142,0.021-0.273-0.079-0.293-0.222l0,0c-0.021-0.143,0.079-0.274,0.221-0.294l0,0c0.144-0.02,0.275,0.079,0.295,0.222l0,0
					c0.002,0.012,0.003,0.024,0.003,0.037l0,0C3.812,34.806,3.717,34.916,3.586,34.935L3.586,34.935z M3.804,32.116
					c-0.019,0.143-0.15,0.241-0.293,0.223l0,0c-0.143-0.02-0.242-0.15-0.223-0.294l0,0c0.02-0.143,0.15-0.241,0.293-0.223l0,0
					c0.131,0.018,0.226,0.13,0.226,0.258l0,0C3.807,32.092,3.806,32.105,3.804,32.116L3.804,32.116z M3.501,34.289
					c-0.144,0.011-0.269-0.099-0.278-0.241l0,0C3.212,33.904,3.32,33.78,3.464,33.77l0,0c0.144-0.01,0.269,0.098,0.278,0.241l0,0
					c0.001,0.007,0.001,0.013,0.001,0.019l0,0C3.743,34.166,3.638,34.281,3.501,34.289L3.501,34.289z M3.74,32.746
					c-0.01,0.143-0.134,0.252-0.277,0.242l0,0c-0.144-0.01-0.252-0.135-0.243-0.278l0,0c0.01-0.143,0.135-0.251,0.278-0.241l0,0
					c0.138,0.009,0.242,0.124,0.242,0.259l0,0C3.74,32.735,3.74,32.74,3.74,32.746L3.74,32.746z M3.46,33.64
					c-0.144,0-0.261-0.116-0.261-0.26l0,0c0-0.144,0.116-0.261,0.26-0.261l0,0c0.144-0.001,0.261,0.116,0.261,0.26l0,0
					C3.72,33.523,3.604,33.64,3.46,33.64L3.46,33.64z"/>
			</g>
		</g>
	</g>
</g>
</svg>
